PathFileType  4	(X/Y/Z) C:\Users\antoi\Documents\MyRepositories\mobilecap\ResultsAnalysis
DataRate	CameraRate	NumFrames	NumMarkers	Units	OrigDataRate	OrigDataStartFrame	OrigNumFrames
100.0	100.0	4	51	mm	100.0	32	248
Frame#	Time	r_knee			r_shank_antsup			r_ankle			r_calc			r_5meta			r_toe			L_knee			L_shank_antsup			L_ankle			L_calc			L_5meta			L_toe			r_sh2			r_sh3			r_sh4			L_sh2			L_sh3			r_thigh1			r_thigh2			r_thigh3			r_thigh4			r_thigh5			L_thigh1			L_thigh2			L_thigh3			L_thigh4			r.ASIS			r.PSIS			L.ASIS			L.PSIS			C7			R_Shoulder			L_Shoulder			R_Sternum			L_Sternum			R_humerus			R_elbow_med			R_elbow_lat			R_forearm			R_wrist_radius			R_wrist_ulna			L_humerus			L_elbow_med			L_elbow_lat			L_forearm			L_wrist_radius			L_wrist_ulna			R_HJC			L_HJC			R_HJC_reg			L_HJC_reg			
		X1	Y1	Z1	X2	Y2	Z2	X3	Y3	Z3	X4	Y4	Z4	X5	Y5	Z5	X6	Y6	Z6	X7	Y7	Z7	X8	Y8	Z8	X9	Y9	Z9	X10	Y10	Z10	X11	Y11	Z11	X12	Y12	Z12	X13	Y13	Z13	X14	Y14	Z14	X15	Y15	Z15	X16	Y16	Z16	X17	Y17	Z17	X18	Y18	Z18	X19	Y19	Z19	X20	Y20	Z20	X21	Y21	Z21	X22	Y22	Z22	X23	Y23	Z23	X24	Y24	Z24	X25	Y25	Z25	X26	Y26	Z26	X27	Y27	Z27	X28	Y28	Z28	X29	Y29	Z29	X30	Y30	Z30	X31	Y31	Z31	X32	Y32	Z32	X33	Y33	Z33	X34	Y34	Z34	X35	Y35	Z35	X36	Y36	Z36	X37	Y37	Z37	X38	Y38	Z38	X39	Y39	Z39	X40	Y40	Z40	X41	Y41	Z41	X42	Y42	Z42	X43	Y43	Z43	X44	Y44	Z44	X45	Y45	Z45	X46	Y46	Z46	X47	Y47	Z47	X48	Y48	Z48	X49	Y49	Z49	X50	Y50	Z50	X51	Y51	Z51	

32	0.31000000	-1022.90717	832.54570	-422.18868	-1024.22976	705.62186	-432.18092	-1221.36160	423.87672	-425.81598	-1294.27540	393.31404	-471.77006	-1098.93398	342.27746	-384.72942	-1059.17135	363.13931	-458.34532	-1070.77196	821.45776	-762.97283	-1050.20844	707.36695	-741.59565	-1244.20177	412.14077	-734.30892	-1312.67405	385.63534	-687.33634	-1109.68349	343.92603	-761.53641	-1076.82264	365.48113	-691.58842	-1064.54850	597.60174	-453.04832	-1082.94889	717.13469	-380.64750	-1115.03447	604.03619	-384.52710	-1125.54681	732.18884	-785.69011	-1144.12597	612.56658	-794.58385	-969.65723	1075.97594	-451.66685	-952.21602	965.73149	-462.61122	-971.50268	935.12175	-405.14190	-1040.72927	1053.98405	-363.66144	-1021.93343	938.46792	-387.48749	-1026.65935	1079.60390	-775.77612	-998.69735	945.49256	-762.97172	-1133.27999	1049.97209	-808.04043	-1103.91197	920.01492	-791.65124	-1015.16930	1300.24242	-449.89440	-1197.94702	1408.52973	-519.38973	-1034.64832	1292.88409	-712.01688	-1208.99721	1405.68746	-620.31393	-951.16370	1843.47043	-583.33372	-900.18952	1757.11203	-399.67868	-904.29886	1775.93039	-760.19238	-846.62701	1717.99970	-563.84498	-852.76423	1715.67120	-610.90874	-965.43328	1605.42439	-318.54722	-1131.13051	1442.37532	-353.85762	-1109.60047	1461.05934	-271.19030	-1061.69125	1290.76213	-269.59884	-1062.71490	1168.68597	-263.82299	-1093.90072	1167.32850	-236.07175	-976.37211	1625.50705	-852.33919	-1141.51908	1471.01575	-815.77193	-1110.98383	1476.24845	-891.07654	-1050.07580	1317.81294	-878.20253	-1045.26799	1200.53579	-903.14820	-1080.45156	1203.72109	-935.17685	-1123.52505	1256.85033	-474.42680	-1142.02007	1240.43344	-686.38105	-1113.07596	1255.84589	-475.48372	-1131.95870	1250.99134	-647.93062	
33	0.32000000	-1015.50700	830.84800	-422.99041	-1018.39945	704.28356	-432.87383	-1219.92222	425.79419	-425.86282	-1293.25146	396.13058	-471.89886	-1098.52087	342.46279	-384.91337	-1058.45158	363.06242	-458.48322	-1064.24916	819.59602	-763.51118	-1044.53771	705.33739	-741.84983	-1243.23057	413.26733	-733.96491	-1312.13924	387.13902	-686.64867	-1109.52436	343.91190	-761.29816	-1076.42307	365.25334	-691.53202	-1060.26553	596.86392	-453.66403	-1076.93865	716.48685	-381.93175	-1110.65825	603.97603	-385.09278	-1119.59965	731.07155	-785.92700	-1139.81848	612.01204	-794.96934	-965.94087	1075.67841	-452.48338	-946.48851	965.73301	-463.33550	-965.23185	934.79409	-406.06885	-1036.21656	1052.36440	-364.34543	-1015.44231	937.22828	-387.93400	-1023.37094	1078.17161	-776.57607	-993.43474	944.43289	-763.97920	-1129.77061	1047.13986	-808.23060	-1098.42200	917.50011	-792.01132	-1014.06949	1296.96418	-450.22396	-1196.19869	1406.33709	-519.50539	-1033.03835	1289.36875	-712.67592	-1207.08155	1403.30807	-620.85496	-946.18664	1839.17801	-583.71860	-895.45754	1752.58309	-400.35088	-899.41954	1771.44260	-760.79599	-842.23244	1713.14657	-564.46796	-848.36439	1710.83092	-611.43411	-961.30546	1601.27457	-319.05214	-1128.03466	1439.33364	-353.82901	-1106.14288	1457.83780	-271.21349	-1059.00580	1287.41800	-269.91872	-1060.46116	1165.08323	-264.35083	-1091.63496	1163.91861	-236.44349	-972.28372	1621.50379	-852.98180	-1138.14503	1467.66062	-816.23757	-1107.74573	1472.82030	-891.53090	-1047.04528	1314.34236	-878.78486	-1042.38026	1196.94695	-903.74165	-1077.69495	1200.15630	-935.66520	-1122.53216	1254.11163	-474.79839	-1140.97030	1237.69403	-686.75754	-1112.27397	1253.17197	-475.97384	-1130.81555	1248.01149	-648.64646	
34	0.33000000	-1007.93709	829.55257	-423.30355	-1012.27500	702.88775	-433.57439	-1218.40654	427.83107	-425.92955	-1292.14737	399.11250	-472.08531	-1097.72239	342.75340	-384.79987	-1057.78434	362.95896	-458.59156	-1057.53036	817.64178	-763.94861	-1038.66520	703.21475	-742.02141	-1242.16878	414.50157	-733.83518	-1311.39075	389.12283	-686.46258	-1109.36378	343.91715	-761.05088	-1076.06547	364.99576	-691.52160	-1055.90094	596.12364	-454.27887	-1070.73276	715.88470	-383.08105	-1106.15307	603.93924	-385.57311	-1113.32148	729.91266	-786.33552	-1135.27042	611.26608	-795.11148	-962.01694	1075.19189	-453.17313	-940.71585	965.58479	-464.10350	-958.72876	934.36791	-406.75478	-1031.49984	1050.65621	-364.77135	-1008.87876	935.70798	-388.26303	-1019.95150	1076.56905	-777.46490	-988.00982	943.31214	-765.01727	-1125.94758	1044.06933	-808.96729	-1092.78770	915.00478	-792.90656	-1012.95273	1293.49448	-450.31292	-1194.33443	1403.63539	-519.97438	-1032.25830	1285.58611	-712.53653	-1205.06519	1400.59652	-621.18281	-941.35809	1834.56436	-584.28678	-890.80857	1747.75127	-400.96059	-894.67993	1766.64994	-761.30360	-837.91188	1708.21439	-565.05078	-843.97094	1705.72246	-612.15598	-957.22246	1596.80492	-319.60032	-1124.42715	1435.95638	-353.93968	-1102.65643	1454.25727	-271.24696	-1056.16162	1283.63124	-270.10596	-1057.91643	1161.25534	-264.72262	-1089.10913	1160.06629	-236.91112	-968.21603	1617.13684	-853.52042	-1134.71885	1463.91671	-816.76887	-1104.41940	1469.15450	-892.20125	-1043.76447	1310.66776	-879.61449	-1039.22351	1193.20418	-904.36123	-1074.46733	1196.69161	-936.80484	-1121.67182	1251.21972	-474.78780	-1140.22195	1234.47717	-686.71087	-1111.57818	1250.04822	-476.12765	-1129.87446	1244.86635	-648.69883	
35	0.34000000	-1000.14048	828.11621	-423.75812	-1005.96189	701.43376	-434.24216	-1216.76026	430.03293	-426.16684	-1290.92442	402.31290	-472.37228	-1097.10786	343.07410	-384.85735	-1057.15851	362.84862	-458.69768	-1050.51952	815.62199	-764.53686	-1032.59815	701.02271	-742.18994	-1241.00495	415.90365	-733.81910	-1310.65711	391.35340	-686.42801	-1109.16348	343.94215	-760.94718	-1075.67914	364.69121	-691.50145	-1051.43414	595.38253	-454.91895	-1064.28498	715.16390	-383.79742	-1101.38248	604.06515	-386.02958	-1106.72942	728.75874	-786.94756	-1130.48654	610.32294	-795.12614	-958.15273	1074.47355	-453.55733	-934.92930	965.30777	-464.67257	-952.24878	933.93196	-407.00592	-1026.87312	1048.65567	-365.02488	-1002.25032	934.02235	-388.50193	-1016.37532	1074.69958	-778.59480	-982.42373	942.04049	-766.12116	-1121.95322	1040.66472	-809.85137	-1087.01386	912.36773	-793.79306	-1011.85129	1289.74789	-450.44691	-1192.39512	1400.51405	-520.51766	-1032.08905	1281.32408	-711.62803	-1203.03617	1397.50507	-621.43431	-936.64569	1829.71632	-585.16341	-886.25819	1742.71483	-401.60901	-890.06834	1761.60192	-761.81452	-833.63799	1702.91672	-565.96070	-839.60762	1700.35635	-612.88110	-953.20240	1592.11888	-320.22300	-1121.03394	1432.12698	-353.90269	-1099.10162	1450.27566	-271.21943	-1053.12214	1279.33603	-270.32526	-1055.18560	1157.12866	-265.00406	-1086.23787	1155.88526	-237.22899	-964.13261	1612.46764	-854.04041	-1131.22076	1459.85339	-817.28147	-1101.06443	1465.17375	-893.00213	-1040.33142	1306.67251	-880.39009	-1035.79448	1189.29245	-905.01597	-1070.99891	1192.81104	-937.61104	-1120.93718	1248.12043	-474.43009	-1139.80022	1230.71760	-686.27229	-1110.93933	1246.62831	-476.14087	-1129.07232	1241.50160	-648.09839	
